# xmcd
#
# Track frame offsets:
#	150
#	27280
#	46940
#	73620
#	107102
#	127087
#	146065
#	174432
#	194235
#	210837
#	232587
#	263117
#	287317
#	312492
#
# Disc length: 4477 seconds
#
# Revision: 1
# Processed by: cddbd v1.5.2PL0 Copyright (c) Steve Scherf et al.
# Submitted via: EZCDAudioConverter 8.0.2.1
#
DISCID=c9117b0e
DTITLE=Hoàng Oanh - Đêm Đông, Chúa Sinh Ra Đời
DYEAR=1992
DGENRE=East Asia
TTITLE0=Đêm đông
TTITLE1=Thờ Lậy Chúa
TTITLE2=Linh Hồn Tôi
TTITLE3=Cao cung lên
TTITLE4=Con sẽ bước lên
TTITLE5=Hồng ân Thiên Chúa
TTITLE6=Kinh hoà bình
TTITLE7=Tôi tin kính
TTITLE8=Mùa đông năm ấy
TTITLE9=Đâu có tình yêu thương
TTITLE10=Ca khúc trầm hương
TTITLE11=Thánh Tâm Giêsu
TTITLE12=Đêm thánh vô cùng
TTITLE13=Tán tụng Hồng Ân
EXTD=
EXTT0=
EXTT1=
EXTT2=
EXTT3=
EXTT4=
EXTT5=
EXTT6=
EXTT7=
EXTT8=
EXTT9=
EXTT10=
EXTT11=
EXTT12=
EXTT13=
PLAYORDER=
